# xmcd
#
# Track frame offsets:
#	150
#	18237
#	42561
#	59960
#	78000
#	104109
#	129311
#	149187
#	172617
#	188457
#	202831
#	237947
#	256127
#
# Disc length: 3599 seconds
#
# Revision: 1
# Processed by: cddbd v1.5.2PL0 Copyright (c) Steve Scherf et al.
# Submitted via: audiograbber 1.83.01
#
DISCID=af0e0d0d
DTITLE=Al Jarreau - L is for lover
DYEAR=2011
DGENRE=Blues
TTITLE0=Tell me what I gotta do
TTITLE1=L is for lover
TTITLE2=Says
TTITLE3=Pleasure
TTITLE4=Golden girl
TTITLE5=Across the midnight sky
TTITLE6=(We got) telepathy
TTITLE7=Give a little more lovin'
TTITLE8=No ordinary romance
TTITLE9=Real tight
TTITLE10=Tell me what I gotta do (12" extended remix)
TTITLE11=L is for lover (45 rpm remix version)
TTITLE12=Moonlighting (45 rpm single version)
EXTD=
EXTT0=
EXTT1=
EXTT2=
EXTT3=
EXTT4=
EXTT5=
EXTT6=
EXTT7=
EXTT8=
EXTT9=
EXTT10=
EXTT11=
EXTT12=
PLAYORDER=
